<svg xmlns="http://www.w3.org/2000/svg" xml:space="preserve" id="layer" x="0" y="0"
     style="enable-background:new 0 0 652 652" version="1.1" viewBox="21.6 276.7 600.1 88.8"><style>.st1{fill:#4e4e4f}</style>
    <path d="m184.2 294.8 28.8-16.6c3.5-2 7.8-2 11.2 0l28.8 16.6c3.5 2 5.6 5.7 5.6 9.7v33.2c0 4-2.1 7.7-5.6 9.7L224.2 364c-3.5 2-7.8 2-11.2 0l-28.8-16.6c-3.5-2-5.6-5.7-5.6-9.7v-33.2c0-4 2.1-7.7 5.6-9.7m60.9 31.2c0-.3-.3-.4-.5-.3l-23.2 13.4c-1.7 1-3.9 1-5.6 0l-11.3-6.6c-1.7-1-2.8-2.9-2.8-4.9v-13.1c0-2 1.1-3.9 2.8-4.9l11.3-6.6c1.7-1 3.9-1 5.6 0l11.3 6.6c.2.1.5.3.7.5l-13.8 8c-.7.4-1.1 1.1-1.1 1.8v7.3c0 1.1 1.2 1.8 2.1 1.2l24-13.9c.2-.1.4-.4.4-.6v-3.3c0-3-1.6-5.8-4.2-7.3l-18-10.3c-2.6-1.5-5.8-1.5-8.4 0l-18.1 10.4a8.44 8.44 0 0 0-4.2 7.3v20.9c0 3 1.6 5.8 4.2 7.3l18.1 10.4c2.6 1.5 5.8 1.5 8.4 0l18.1-10.4c2.6-1.5 4.2-4.3 4.2-7.3V326z"
          style="fill:#f8991d"/>
    <path d="M24.4 317.5c-.8 0-1.4-.7-1.3-1.5.3-2.1.9-3.8 1.9-5.3 1.2-1.8 2.7-3.2 4.6-4.3 1.8-1.1 3.9-1.9 6.2-2.3s4.6-.7 7-.7c2.1 0 4.3.2 6.5.5s4.2.9 6 1.8c1.8.9 3.3 2.1 4.4 3.6 1.1 1.6 1.7 3.6 1.7 6.2v22c0 1.9.1 3.7.3 5.5.1.9.3 1.6.4 2.3.2.8-.4 1.6-1.3 1.6H52c-.6 0-1.1-.4-1.2-.9-.1-.4-.2-.7-.3-1.1l-.3-2.1c-1.9 1.9-4 3.2-6.5 4-2.5.8-5.1 1.1-7.7 1.1-2 0-3.9-.2-5.6-.7-1.7-.5-3.3-1.2-4.6-2.3-1.3-1-2.3-2.3-3.1-3.9-.7-1.6-1.1-3.5-1.1-5.6 0-2.4.4-4.4 1.3-5.9.8-1.6 1.9-2.8 3.3-3.7 1.3-.9 2.9-1.6 4.6-2.1 1.7-.5 3.4-.8 5.2-1.1 1.7-.3 3.5-.5 5.1-.7 1.7-.2 3.2-.4 4.5-.7 1.3-.3 2.3-.8 3.1-1.4.8-.6 1.1-1.5 1.1-2.7 0-1.2-.2-2.2-.6-3-.4-.7-1-1.3-1.6-1.7-.7-.4-1.5-.7-2.4-.8-.9-.1-1.9-.2-2.9-.2-2.3 0-4.1.5-5.4 1.5-1.1.8-1.8 2.1-2.1 3.9-.1.6-.6 1-1.2 1h-9.2zm25.4 8.6c-.5.4-1.1.8-1.8 1-.7.2-1.5.4-2.4.6-.8.2-1.7.3-2.7.4-.9.1-1.9.2-2.8.4-.9.2-1.7.4-2.6.7-.8.3-1.6.6-2.2 1.1-.6.5-1.1 1-1.5 1.8-.4.7-.6 1.6-.6 2.7 0 1 .2 1.9.6 2.6.4.7.9 1.3 1.6 1.7.7.4 1.4.7 2.3.9.9.2 1.8.2 2.7.2 2.3 0 4.1-.4 5.3-1.1 1.3-.8 2.2-1.7 2.8-2.7.6-1.1 1-2.1 1.1-3.2.1-1.1.2-2 .2-2.6v-4.5zM103.7 346.7c-.6 0-1.1-.4-1.2-1l-7.3-27.4H95l-7 27.5c-.1.6-.7 1-1.2 1H76.7c-.6 0-1.1-.4-1.2-.9l-12.6-39.7c-.3-.8.4-1.7 1.2-1.7h9.5c.6 0 1.1.4 1.2.9l7.5 27.7h.2l6.8-27.7c.1-.6.7-1 1.2-1h9.3c.6 0 1.1.4 1.2 1l6.9 27.6h.2l7.5-27.7c.1-.6.7-.9 1.2-.9h9.2c.9 0 1.5.8 1.2 1.7l-12.5 39.7c-.2.5-.7.9-1.2.9h-9.8zM140.1 336.2c.5.9 1.2 1.6 2 2.2.8.6 1.8 1 2.8 1.3 1.1.3 2.2.4 3.3.4.8 0 1.7-.1 2.6-.3.9-.2 1.7-.5 2.5-.9.7-.4 1.4-1 1.8-1.6.5-.7.7-1.5.7-2.6 0-1.7-1.2-3-3.5-3.9-2.3-.9-5.5-1.7-9.7-2.6-1.7-.4-3.3-.8-4.9-1.3-1.6-.5-3-1.2-4.3-2-1.3-.8-2.3-1.9-3-3.2-.8-1.3-1.1-2.8-1.1-4.7 0-2.7.5-5 1.6-6.7 1.1-1.7 2.5-3.1 4.2-4.1 1.7-1 3.7-1.7 5.9-2.1 2.2-.4 4.4-.6 6.7-.6s4.5.2 6.7.7c2.2.4 4.1 1.2 5.8 2.2 1.7 1 3.1 2.4 4.2 4.1.9 1.4 1.5 3 1.8 5 .1.8-.5 1.5-1.3 1.5h-8.5c-.6 0-1.1-.4-1.2-1-.3-1.7-1.1-2.8-2.4-3.5-1.5-.8-3.3-1.2-5.4-1.2-.7 0-1.4 0-2.1.1-.8.1-1.5.3-2.1.5-.6.3-1.2.7-1.6 1.2-.4.5-.7 1.2-.7 2.1 0 1 .4 1.9 1.1 2.5.8.7 1.8 1.2 3 1.6 1.2.4 2.6.8 4.2 1.1 1.6.3 3.2.7 4.8 1.1 1.7.4 3.3.8 4.9 1.4 1.6.5 3 1.3 4.3 2.2 1.2.9 2.3 2 3 3.4.8 1.3 1.1 3 1.1 4.9 0 2.8-.6 5.1-1.7 7-1.1 1.9-2.6 3.4-4.4 4.5-1.8 1.1-3.9 1.9-6.2 2.4-2.3.5-4.7.7-7.1.7-2.5 0-4.9-.2-7.2-.7-2.3-.5-4.4-1.3-6.2-2.5-1.8-1.1-3.3-2.7-4.5-4.5-1-1.6-1.6-3.4-1.8-5.6-.1-.8.5-1.4 1.3-1.4h8.5c.6 0 1.2.5 1.3 1.1.2.5.5 1.2.8 1.8M284.1 336.6c1.7 1.7 4.2 2.5 7.5 2.5 2.3 0 4.4-.6 6-1.8 1.4-1 2.3-2 2.8-3 .2-.4.7-.7 1.1-.7h7.5c.9 0 1.5.9 1.2 1.8-1.6 4.1-3.9 7.2-6.9 9.1-3.4 2.2-7.5 3.3-12.3 3.3-3.3 0-6.3-.5-9-1.6s-4.9-2.6-6.8-4.5c-1.9-2-3.3-4.3-4.3-7s-1.5-5.7-1.5-9c0-3.2.5-6.1 1.6-8.8 1-2.7 2.5-5.1 4.4-7.1 1.9-2 4.2-3.6 6.8-4.7 2.6-1.1 5.6-1.7 8.8-1.7 3.6 0 6.7.7 9.4 2.1 2.7 1.4 4.9 3.3 6.6 5.6 1.7 2.3 3 5 3.7 8 .7 2.6 1 5.3.9 8.2 0 .7-.6 1.2-1.3 1.2h-27.9c-.8 0-1.4.7-1.3 1.4.6 3 1.5 5.3 3 6.7m13.1-22.2c-1.4-1.5-3.5-2.3-6.3-2.3-1.9 0-3.4.3-4.6.9-1.2.6-2.2 1.4-2.9 2.3-.7.9-1.2 1.9-1.6 2.9l-.3 1.2c-.2.8.4 1.5 1.3 1.5h15.8c.8 0 1.5-.8 1.2-1.6-.6-2-1.4-3.7-2.6-4.9M347.2 336.6c1.7 1.7 4.2 2.5 7.5 2.5 2.3 0 4.4-.6 6-1.8 1.4-1 2.3-2 2.8-3 .2-.4.6-.7 1.1-.7h7.5c.9 0 1.5.9 1.2 1.8-1.6 4.1-3.9 7.2-6.9 9.1-3.4 2.2-7.5 3.3-12.3 3.3-3.3 0-6.3-.5-9-1.6s-4.9-2.6-6.8-4.5c-1.9-2-3.3-4.3-4.3-7s-1.5-5.7-1.5-9c0-3.2.5-6.1 1.6-8.8 1-2.7 2.5-5.1 4.4-7.1 1.9-2 4.2-3.6 6.8-4.7 2.6-1.1 5.6-1.7 8.8-1.7 3.6 0 6.7.7 9.4 2.1 2.7 1.4 4.9 3.3 6.6 5.6 1.7 2.3 3 5 3.7 8 .7 2.6 1 5.3.9 8.2 0 .7-.6 1.2-1.3 1.2h-27.9c-.8 0-1.4.7-1.3 1.4.6 3 1.5 5.3 3 6.7m13.1-22.2c-1.4-1.5-3.5-2.3-6.3-2.3-1.9 0-3.4.3-4.6.9-1.2.6-2.2 1.4-2.9 2.3-.7.9-1.3 1.9-1.6 2.9l-.3 1.2c-.2.8.4 1.5 1.3 1.5h15.8c.8 0 1.5-.8 1.2-1.6-.6-2-1.5-3.7-2.6-4.9M389.2 304.5c.7 0 1.3.6 1.3 1.3v4.4h.2c1.5-2.2 3.4-3.9 5.5-5.1 2.1-1.2 4.6-1.8 7.4-1.8 2.7 0 5.1.5 7.3 1.6 1.7.8 3.1 2 4.1 3.8.5.8 1.5.9 2.1.2 1.1-1.2 2.4-2.4 3.9-3.4 2.1-1.4 4.7-2.1 7.6-2.1 2.2 0 4.3.3 6.2.8 1.9.5 3.5 1.4 4.9 2.6 1.4 1.2 2.4 2.8 3.2 4.7.8 1.9 1.1 4.3 1.1 7v27c0 .7-.6 1.3-1.3 1.3h-9c-.7 0-1.3-.6-1.3-1.3v-22.7c0-1.4-.1-2.7-.2-4-.1-1.3-.4-2.3-.9-3.3-.5-.9-1.2-1.7-2.2-2.2-1-.5-2.2-.8-3.9-.8-1.6 0-3 .3-4 .9-1 .6-1.8 1.4-2.4 2.5-.6 1-1 2.2-1.1 3.4-.2 1.3-.3 2.6-.3 3.9v22.3c0 .7-.6 1.3-1.3 1.3h-9c-.7 0-1.3-.6-1.3-1.3v-22.4c0-1.2 0-2.5-.1-3.7-.1-1.2-.3-2.4-.7-3.4-.4-1-1.1-1.9-2-2.5-1-.6-2.4-.9-4.2-.9-.5 0-1.3.1-2.2.4-.9.2-1.8.7-2.6 1.4s-1.6 1.7-2.2 2.9c-.6 1.3-.9 3-.9 5v23.2c0 .7-.6 1.3-1.3 1.3h-9c-.7 0-1.3-.6-1.3-1.3v-39.7c0-.7.6-1.3 1.3-1.3h8.6zM463.2 336.6c1.7 1.7 4.2 2.5 7.5 2.5 2.3 0 4.4-.6 6-1.8 1.4-1 2.3-2 2.8-3 .2-.4.6-.7 1.1-.7h7.5c.9 0 1.5.9 1.2 1.8-1.6 4.1-3.9 7.2-6.9 9.1-3.4 2.2-7.5 3.3-12.3 3.3-3.3 0-6.3-.5-9-1.6s-4.9-2.6-6.8-4.5c-1.8-2-3.3-4.3-4.3-7s-1.5-5.7-1.5-9c0-3.2.5-6.1 1.6-8.8 1-2.7 2.5-5.1 4.4-7.1 1.9-2 4.2-3.6 6.8-4.7 2.6-1.1 5.6-1.7 8.8-1.7 3.6 0 6.7.7 9.4 2.1 2.7 1.4 4.9 3.3 6.6 5.6 1.7 2.3 3 5 3.7 8 .7 2.6 1 5.3.9 8.2 0 .7-.6 1.2-1.3 1.2h-27.9c-.8 0-1.4.7-1.3 1.4.6 3 1.5 5.3 3 6.7m13.1-22.2c-1.4-1.5-3.5-2.3-6.3-2.3-1.9 0-3.4.3-4.6.9-1.2.6-2.2 1.4-2.9 2.3-.7.9-1.3 1.9-1.6 2.9l-.3 1.2c-.2.8.4 1.5 1.3 1.5h15.8c.8 0 1.5-.8 1.2-1.6-.6-2-1.4-3.7-2.6-4.9M505 304.5c.7 0 1.3.6 1.3 1.3v4.6h.2c1.5-2.5 3.4-4.2 5.7-5.4 2.3-1.1 4.7-1.7 7.2-1.7 3.1 0 5.6.4 7.6 1.3 2 .8 3.6 2 4.7 3.5s1.9 3.3 2.4 5.5c.5 2.1.7 4.5.7 7.1v24.7c0 .7-.6 1.3-1.3 1.3h-9c-.7 0-1.3-.6-1.3-1.3v-22.6c0-3.5-.5-6.1-1.6-7.8-1.1-1.7-3-2.6-5.8-2.6-3.2 0-5.4.9-6.9 2.8-1.4 1.9-2.1 5-2.1 9.3v20.9c0 .7-.6 1.3-1.3 1.3h-9c-.7 0-1.3-.6-1.3-1.3v-39.7c0-.7.6-1.3 1.3-1.3h8.5zM566.3 317.5c-.8 0-1.4-.7-1.3-1.5.3-2.1.9-3.8 1.9-5.3 1.2-1.8 2.7-3.2 4.6-4.3 1.8-1.1 3.9-1.9 6.2-2.3 2.3-.5 4.6-.7 7-.7 2.1 0 4.3.2 6.5.5s4.2.9 6 1.8c1.8.9 3.3 2.1 4.4 3.6 1.1 1.6 1.7 3.6 1.7 6.2v22c0 1.9.1 3.7.3 5.5.1.9.3 1.6.4 2.3.2.8-.4 1.6-1.3 1.6h-8.8c-.6 0-1.1-.4-1.2-.9-.1-.4-.2-.7-.3-1.1l-.3-2.1c-1.9 1.9-4 3.2-6.5 4-2.5.8-5.1 1.1-7.7 1.1-2 0-3.9-.2-5.6-.7-1.7-.5-3.3-1.2-4.6-2.3-1.3-1-2.3-2.3-3.1-3.9-.7-1.6-1.1-3.5-1.1-5.6 0-2.4.4-4.4 1.3-5.9.8-1.6 1.9-2.8 3.3-3.7 1.3-.9 2.9-1.6 4.6-2.1 1.7-.5 3.4-.8 5.2-1.1 1.7-.3 3.5-.5 5.1-.7 1.7-.2 3.2-.4 4.5-.7 1.3-.3 2.3-.8 3.1-1.4.8-.6 1.1-1.5 1.1-2.7 0-1.2-.2-2.2-.6-3-.4-.7-1-1.3-1.6-1.7-.7-.4-1.5-.7-2.4-.8-.9-.1-1.9-.2-2.9-.2-2.3 0-4.1.5-5.4 1.5-1.1.8-1.8 2.1-2.1 3.9-.1.6-.6 1-1.2 1h-9.2zm25.3 8.6c-.5.4-1.1.8-1.8 1-.7.2-1.5.4-2.4.6-.8.2-1.7.3-2.7.4-.9.1-1.9.2-2.8.4-.9.2-1.7.4-2.6.7-.8.3-1.6.6-2.2 1.1-.6.5-1.1 1-1.5 1.8-.4.7-.6 1.6-.6 2.7 0 1 .2 1.9.6 2.6.4.7.9 1.3 1.6 1.7.7.4 1.4.7 2.3.9.9.2 1.8.2 2.7.2 2.3 0 4.1-.4 5.3-1.1 1.3-.8 2.2-1.7 2.8-2.7.6-1.1 1-2.1 1.1-3.2.1-1.1.2-2 .2-2.6v-4.5zM316.5 301v44.5c0 .7.6 1.3 1.3 1.3h9c.7 0 1.3-.6 1.3-1.3v-49.7c0-1-1.1-1.6-1.9-1.1l-9 5.2c-.5.2-.7.6-.7 1.1M610.1 301v44.5c0 .7.6 1.3 1.3 1.3h9c.7 0 1.3-.6 1.3-1.3v-49.7c0-1-1.1-1.6-1.9-1.1l-9 5.2c-.4.2-.7.6-.7 1.1M559.3 304.5h-5.9c-.7 0-1.3-.6-1.3-1.3v-7.5c0-1-1.1-1.6-1.9-1.1l-9 5.2c-.4.2-.6.7-.6 1.1v36.2c0 2.1.4 3.8 1.1 5.1.7 1.3 1.7 2.3 2.9 3 1.2.7 2.6 1.2 4.2 1.4 1.6.2 3.3.4 5.1.4h2.6c.7 0 1.2-.6 1.2-1.3v-6.5c0-.7-.6-1.3-1.3-1.3-1.6-.1-2.8-.4-3.3-1-.7-.7-1-2-1-3.9v-19.6c0-.7.6-1.3 1.3-1.3h5.9c.7 0 1.3-.6 1.3-1.3v-5.2c0-.5-.6-1.1-1.3-1.1"
          class="st1"/></svg>