<?xml version="1.0" standalone="no"?>
<!DOCTYPE svg PUBLIC "-//W3C//DTD SVG 20010904//EN"
 "http://www.w3.org/TR/2001/REC-SVG-20010904/DTD/svg10.dtd">
<svg version="1.0" xmlns="http://www.w3.org/2000/svg"
 width="896.000000pt" height="256.000000pt" viewBox="0 0 896.000000 256.000000"
 preserveAspectRatio="xMidYMid meet">

<g transform="translate(0.000000,256.000000) scale(0.100000,-0.100000)"
fill="#000000" stroke="none">
<path d="M0 1280 l0 -1280 1280 0 1280 0 0 1280 0 1280 -1280 0 -1280 0 0
-1280z m1479 696 c123 -32 218 -102 262 -194 27 -55 37 -184 20 -249 -17 -61
-69 -134 -123 -170 l-47 -31 52 -26 c81 -39 132 -89 169 -164 31 -62 33 -74
33 -167 0 -93 -2 -105 -33 -167 -54 -109 -149 -181 -297 -223 -50 -15 -118
-18 -417 -22 l-358 -5 0 722 0 722 338 -5 c271 -3 350 -7 401 -21z"/>
<path d="M1020 1590 l0 -180 148 0 c163 0 206 8 253 47 79 67 79 199 1 265
-43 36 -110 48 -267 48 l-135 0 0 -180z"/>
<path d="M1020 985 l0 -197 183 4 c179 3 183 3 242 33 84 43 100 68 100 163 0
93 -20 128 -93 164 -43 21 -61 23 -239 26 l-193 3 0 -196z"/>
<path d="M3200 1280 l0 -1280 1280 0 1280 0 0 1280 0 1280 -1280 0 -1280 0 0
-1280z m1479 696 c123 -32 218 -102 262 -194 27 -55 37 -184 20 -249 -17 -61
-69 -134 -123 -170 l-47 -31 52 -26 c81 -39 132 -89 169 -164 31 -62 33 -74
33 -167 0 -93 -2 -105 -33 -167 -54 -109 -149 -181 -297 -223 -50 -15 -118
-18 -417 -22 l-358 -5 0 722 0 722 338 -5 c271 -3 350 -7 401 -21z"/>
<path d="M4220 1590 l0 -180 148 0 c163 0 206 8 253 47 79 67 79 199 1 265
-43 36 -110 48 -267 48 l-135 0 0 -180z"/>
<path d="M4220 985 l0 -197 183 4 c179 3 183 3 242 33 84 43 100 68 100 163 0
93 -20 128 -93 164 -43 21 -61 23 -239 26 l-193 3 0 -196z"/>
<path d="M6400 1280 l0 -1280 1280 0 1280 0 0 1280 0 1280 -1280 0 -1280 0 0
-1280z m1607 711 c50 -11 119 -31 152 -46 l61 -28 0 -133 c0 -74 -2 -134 -5
-134 -3 0 -33 14 -66 31 -91 45 -196 69 -308 69 -159 0 -268 -39 -353 -127
-85 -87 -122 -194 -121 -348 1 -216 92 -369 260 -436 51 -21 75 -23 203 -24
160 0 205 9 338 70 l72 34 0 -133 0 -133 -59 -27 c-125 -56 -201 -70 -391 -70
-201 -1 -254 9 -388 75 -101 49 -201 140 -255 230 -134 227 -136 586 -4 819
42 75 158 189 237 233 74 41 166 73 242 86 98 16 286 12 385 -8z"/>
</g>
</svg>
