<svg version="1.1" id="svg2" xml:space="preserve"
  viewBox="60.49212646484375 60.49066162109375 708.2051391601562 213.61721801757812"
  sodipodi:docname="Logotype Broadpeak rgb.eps"
  xmlns:inkscape="http://www.inkscape.org/namespaces/inkscape"
  xmlns:sodipodi="http://sodipodi.sourceforge.net/DTD/sodipodi-0.dtd"
  xmlns="http://www.w3.org/2000/svg" xmlns:svg="http://www.w3.org/2000/svg"><defs id="defs6"></defs><sodipodi:namedview id="namedview4" pagecolor="#ffffff" bordercolor="#666666" borderopacity="1.0" inkscape:pageshadow="2" inkscape:pageopacity="0.0" inkscape:pagecheckerboard="0"></sodipodi:namedview><g id="g8" inkscape:groupmode="layer" inkscape:label="ink_ext_XXXXXX" transform="matrix(1.3333333,0,0,-1.3333333,0,334.6)"><g id="g10" transform="scale(0.1)"><path d="m 4777.73,1441.23 -68.53,9.17 51.37,25.07 67.38,-9.24 z m -466.87,34.13 -48.23,16.17 42.71,14.52 46.92,-16.37 z m -182.05,158 -61.91,34.12 73.8,17.33 65.59,-34.83 z m -11.69,-92.87 -58.58,27.21 56.21,12.72 54.73,-26.33 z m -155.32,178.58 -42.75,30.77 53.82,7.88 41.52,-27.47 z m -24.65,-84.82 -49.78,31.36 57.36,11.95 48.42,-30.29 z m -148.92,76.54 -30.19,20.64 40.74,4.18 26.72,-19.4 z m 1180.55,-205.18 -123.33,11.66 -83.13,-41.46 -101.87,18.55 87.5,38.54 -97.15,20.31 -98.83,-34.28 76.39,-18.53 -67.11,-25.78 -77.47,19.53 67.91,24.79 -109.43,32.61 93.44,31.4 -91.87,29.69 -97.68,-25.3 71.36,-27.34 -72.69,-22.1 -75.98,29.53 76.51,19.96 -105.46,46.21 90.76,24.51 -99.58,47.7 -90.28,-20.81 -86.81,53.58 87.5,18.75 c 0,0 -48.39,30.09 -67.03,42.81 -24.53,-3.75 -106.23,-13.04 -153.59,-14.74 -92.92,-3.33 -179.8,-3.51 -293.75,11.67 -167.52,22.31 -413.32,78.68 -680.42,258.75 257.5,-236.67 622.88,-445.95 991.67,-550.21 345.52,-97.68 659.02,-122.41 1003.75,-90.21 2.84,0.27 5.71,0.57 8.57,0.85 l 57.89,38.52 -116.25,6.25 76.46,44.59" style="fill:#00b5e6;fill-opacity:1;fill-rule:nonzero;stroke:none" id="path12"></path><path d="m 2892.37,1975.66 c 0,0 102.93,-95.69 285.9,-219.64 0.91,-0.62 -36.4,-19.81 -86.79,-44 -59.83,-28.75 -138.28,-64.85 -246.87,-103.29 -92.22,-32.64 -204.57,-68.33 -342.66,-97.65 -166.03,-35.27 -368.84,-61.56 -617.13,-58.6 0,0 611.04,-14.17 1007.55,523.18" style="fill:#00b5e6;fill-opacity:1;fill-rule:nonzero;stroke:none" id="path14"></path><path d="m 4262.26,1712.48 -86.25,45 73.13,16.1 93.59,-42.35 -80.47,-18.75" style="fill:#00b5e6;fill-opacity:1;fill-rule:nonzero;stroke:none" id="path16"></path><path d="m 4461.9,1629.56 -95.2,36.67 87.91,22.08 106.67,-32.91 -99.38,-25.84" style="fill:#00b5e6;fill-opacity:1;fill-rule:nonzero;stroke:none" id="path18"></path><path d="m 4666.7,1572.27 -91.67,24.17 95.63,32.2 99.16,-19.28 -103.12,-37.09" style="fill:#00b5e6;fill-opacity:1;fill-rule:nonzero;stroke:none" id="path20"></path><path d="m 4873.78,1538.73 -96.05,13.33 99.59,42.92 95,-8.12 -98.54,-48.13" style="fill:#00b5e6;fill-opacity:1;fill-rule:nonzero;stroke:none" id="path22"></path><path d="m 5098.36,1525.61 -107.29,3.75 96.18,53.52 99.45,1.89 -88.34,-59.16" style="fill:#00b5e6;fill-opacity:1;fill-rule:nonzero;stroke:none" id="path24"></path><path d="m 5318.57,1542.69 -97.71,-6.04 71.46,55 92.29,10.21 -66.04,-59.17" style="fill:#00b5e6;fill-opacity:1;fill-rule:nonzero;stroke:none" id="path26"></path><path d="m 5187.01,1502 c -51.01,-1.4 -110.53,-1.39 -110.53,-1.39 l -67.58,-45.18 119.97,-0.02 58.14,46.59" style="fill:#00b5e6;fill-opacity:1;fill-rule:nonzero;stroke:none" id="path28"></path><path d="m 5387.4,1519.01 c -23.94,-3.06 -50.57,-6.09 -79.96,-8.91 l -49.2,-44.78 c 36.18,8 70.59,16.51 102.23,24.91 l 26.93,28.78" style="fill:#00b5e6;fill-opacity:1;fill-rule:nonzero;stroke:none" id="path30"></path><path d="m 5545.82,1546.84 c 0.01,0 0.04,0.02 0.04,0.02 l -0.03,-0.01 c 0,0 0,-0.01 -0.01,-0.01" style="fill:#00b5e6;fill-opacity:1;fill-rule:nonzero;stroke:none" id="path32"></path><path d="m 5534.4,1586.44 -66.87,-12.08 47.08,49.79 65.62,15 -45.83,-52.71" style="fill:#00b5e6;fill-opacity:1;fill-rule:nonzero;stroke:none" id="path34"></path><path d="m 4294.92,1791.08 -45.01,20.74 42.53,8.32 45.76,-20 -43.28,-9.06" style="fill:#00b5e6;fill-opacity:1;fill-rule:nonzero;stroke:none" id="path36"></path><path d="m 4482.53,1701.23 -70.21,23.13 76.75,15.71 68.97,-19.3 -75.51,-19.54" style="fill:#00b5e6;fill-opacity:1;fill-rule:nonzero;stroke:none" id="path38"></path><path d="m 4680.91,1652.23 -72.95,15.4 88.94,23.18 69.58,-10.83 -85.57,-27.75" style="fill:#00b5e6;fill-opacity:1;fill-rule:nonzero;stroke:none" id="path40"></path><path d="m 4892.1,1625.55 -77.07,7.14 91.25,33.33 73.33,-3.12 -87.51,-37.35" style="fill:#00b5e6;fill-opacity:1;fill-rule:nonzero;stroke:none" id="path42"></path><path d="m 5103.36,1623.73 -76.88,-1.87 82.92,42.91 74.58,5.21 -80.62,-46.25" style="fill:#00b5e6;fill-opacity:1;fill-rule:nonzero;stroke:none" id="path44"></path><path d="m 5322.32,1645.81 -80,-10.83 78.54,51.88 72.29,12.91 -70.83,-53.96" style="fill:#00b5e6;fill-opacity:1;fill-rule:nonzero;stroke:none" id="path46"></path><path d="m 5529.4,1690.61 -75.67,-19.04 62.47,56.76 67.58,19.57 -54.38,-57.29" style="fill:#00b5e6;fill-opacity:1;fill-rule:nonzero;stroke:none" id="path48"></path><path d="m 5728.77,1762.52 -50.74,-18.29 40.02,45.39 47.18,19.53 -36.46,-46.63" style="fill:#00b5e6;fill-opacity:1;fill-rule:nonzero;stroke:none" id="path50"></path><path d="m 543.191,711.469 c 29.329,-8.848 64.942,-13.27 106.875,-13.27 112.852,0 169.301,60.883 169.301,182.692 0,102.89 -51.109,154.299 -153.332,154.299 -46.418,0 -87.375,-8.24 -122.844,-24.73 z m -89.5,570.961 h 89.5 v -196.85 c 38.36,15.24 79.461,22.89 123.344,22.89 160.551,0 240.852,-76.93 240.852,-230.779 0,-166.679 -84.332,-250 -252.965,-250 -72.871,0 -139.766,6.571 -200.731,19.68 v 635.059" style="fill:#0c395f;fill-opacity:1;fill-rule:nonzero;stroke:none" id="path52"></path><path d="m 1008.48,627.691 v 480.779 h 60.46 l 15.95,-61.36 c 44.5,40.89 98.01,61.36 160.61,61.36 v -70.53 c -60.64,0 -109.8,-20.29 -147.52,-60.901 V 627.691 h -89.5" style="fill:#0c395f;fill-opacity:1;fill-rule:nonzero;stroke:none" id="path54"></path><path d="m 1532.79,696.371 c 101.56,0 152.37,57.859 152.37,173.539 0,113.25 -50.81,169.87 -152.37,169.87 -101.55,0 -152.34,-56.62 -152.34,-169.87 0,-115.68 50.79,-173.539 152.34,-173.539 z M 1290.97,868.09 c 0,160.26 80.6,240.38 241.82,240.38 161.23,0 241.85,-80.12 241.85,-240.38 0,-159.969 -80.62,-239.942 -241.85,-239.942 -160.56,0 -241.19,79.973 -241.82,239.942" style="fill:#0c395f;fill-opacity:1;fill-rule:nonzero;stroke:none" id="path56"></path><path d="m 2057.59,856.609 c -77.71,0 -116.58,-25.91 -116.58,-77.808 0,-54.942 33.89,-82.43 101.59,-82.43 61.92,0 111.08,12.5 147.53,37.551 v 113.527 c -35.49,6.121 -79.66,9.16 -132.54,9.16 z M 1851.54,777.43 c 0,98.582 68.7,147.871 206.05,147.871 50.62,0 94.79,-3.063 132.54,-9.141 v 45.309 c 0,52.211 -45.63,78.311 -136.89,78.311 -52.24,0 -105.78,-7.63 -160.58,-22.89 v 68.69 c 54.8,15.24 108.34,22.89 160.58,22.89 150.89,0 226.35,-51.3 226.35,-153.849 v -326.93 h -45.45 l -35.8,33.899 c -44.19,-22.621 -96.09,-33.899 -155.74,-33.899 -127.37,0 -191.06,49.911 -191.06,149.739" style="fill:#0c395f;fill-opacity:1;fill-rule:nonzero;stroke:none" id="path58"></path><path d="m 2745.87,1010.46 c -36.12,16.49 -77.39,24.73 -123.83,24.73 -102.22,0 -153.33,-51.409 -153.33,-154.299 0,-121.809 51.11,-182.692 153.33,-182.692 46.44,0 87.71,5.949 123.83,17.86 z m 89.48,-353.921 c -61.61,-19.25 -137.53,-28.848 -227.83,-28.848 -151.22,0 -226.82,83.321 -226.82,250 0,153.849 80.28,230.779 240.84,230.779 43.86,0 85.31,-7.65 124.33,-22.89 v 196.85 h 89.48 V 656.539" style="fill:#0c395f;fill-opacity:1;fill-rule:nonzero;stroke:none" id="path60"></path><path d="m 3050.11,725.68 c 35.13,-16.5 74.29,-24.731 117.52,-24.731 105.43,0 158.15,59.992 158.15,179.942 0,104.699 -52.4,157.049 -157.17,157.049 -45.16,0 -84.66,-3.65 -118.5,-10.99 z m -89.47,363.09 c 67.36,13.13 137.03,19.7 208.91,19.7 162.85,0 244.27,-76.19 244.27,-228.482 0,-168.207 -81.9,-252.297 -245.72,-252.297 -40.6,0 -79.96,7.618 -117.99,22.899 V 453.691 h -89.47 v 635.079" style="fill:#0c395f;fill-opacity:1;fill-rule:nonzero;stroke:none" id="path62"></path><path d="m 3580.22,914.32 h 260.2 c 4.53,84.239 -35.79,126.38 -120.91,126.38 -87.07,0 -133.48,-42.141 -139.29,-126.38 z m 341.94,-70.519 h -341.94 c 0,-98.281 65.46,-147.43 196.36,-147.43 44.82,0 89.64,4.578 134.47,13.758 v -68.707 c -44.83,-9.16 -99.31,-13.731 -163.49,-13.731 -171.22,0 -256.82,81.95 -256.82,245.868 0,156.601 81.08,234.911 243.28,234.911 155.42,0 218.14,-88.21 188.14,-264.669" style="fill:#0c395f;fill-opacity:1;fill-rule:nonzero;stroke:none" id="path64"></path><path d="m 4224.47,856.609 c -77.73,0 -116.55,-25.91 -116.55,-77.808 0,-54.942 33.85,-82.43 101.56,-82.43 61.9,0 111.06,12.5 147.52,37.551 v 113.527 c -35.49,6.121 -79.65,9.16 -132.53,9.16 z M 4018.43,777.43 c 0,98.582 68.68,147.871 206.04,147.871 50.62,0 94.8,-3.063 132.53,-9.141 v 45.309 c 0,52.211 -45.65,78.311 -136.89,78.311 -52.21,0 -105.77,-7.63 -160.59,-22.89 v 68.69 c 54.82,15.24 108.38,22.89 160.59,22.89 150.93,0 226.37,-51.3 226.37,-153.849 v -326.93 h -45.49 l -35.77,33.899 c -44.19,-22.621 -96.09,-33.899 -155.74,-33.899 -127.36,0 -191.05,49.911 -191.05,149.739" style="fill:#0c395f;fill-opacity:1;fill-rule:nonzero;stroke:none" id="path66"></path><path d="m 4725.66,890.891 c 77.85,28.168 187.21,82.187 271.26,180.699 l -64.77,36.58 c -87.88,-100.72 -214.5,-146.65 -270.9,-163.041 v 51.59 74.181 211.44 h -89.49 V 627.691 h 89.49 v 210.93 l 247.14,-210.93 h 114.57 l -297.3,263.2" style="fill:#0c395f;fill-opacity:1;fill-rule:nonzero;stroke:none" id="path68"></path></g></g></svg>