<?xml version="1.0" encoding="UTF-8" standalone="no"?>
<!-- Generator: Adobe Illustrator 24.0.1, SVG Export Plug-In . SVG Version: 6.00 Build 0)  -->

<svg
   xmlns:dc="http://purl.org/dc/elements/1.1/"
   xmlns:cc="http://creativecommons.org/ns#"
   xmlns:rdf="http://www.w3.org/1999/02/22-rdf-syntax-ns#"
   xmlns:svg="http://www.w3.org/2000/svg"
   xmlns="http://www.w3.org/2000/svg"
   xmlns:sodipodi="http://sodipodi.sourceforge.net/DTD/sodipodi-0.dtd"
   xmlns:inkscape="http://www.inkscape.org/namespaces/inkscape"
   version="1.1"
   id="Logo"
   x="0px"
   y="0px"
   viewBox="0 0 974.90004 246.60001"
   xml:space="preserve"
   sodipodi:docname="dolby_logo_white.svg"
   inkscape:version="0.92.4 (5da689c313, 2019-01-14)"><metadata
   id="metadata25"><rdf:RDF><cc:Work
       rdf:about=""><dc:format>image/svg+xml</dc:format><dc:type
         rdf:resource="http://purl.org/dc/dcmitype/StillImage" /><dc:title></dc:title></cc:Work></rdf:RDF></metadata><defs
   id="defs23" /><sodipodi:namedview
   pagecolor="#ff00ff"
   bordercolor="#666666"
   borderopacity="1"
   objecttolerance="10"
   gridtolerance="10"
   guidetolerance="10"
   inkscape:pageopacity="0"
   inkscape:pageshadow="2"
   inkscape:window-width="1920"
   inkscape:window-height="1017"
   id="namedview21"
   showgrid="false"
   inkscape:zoom="0.72791258"
   inkscape:cx="653.2128"
   inkscape:cy="326.7514"
   inkscape:window-x="-8"
   inkscape:window-y="700"
   inkscape:window-maximized="1"
   inkscape:current-layer="Logo" />
<style
   type="text/css"
   id="style2">
	.st0{fill:#000000;}
</style>
<g
   id="g18"
   transform="translate(-122.6,-122.49985)">
	<rect
   x="776.40002"
   y="122.6"
   class="st0"
   width="28.700001"
   height="189.3"
   id="rect4"
   style="fill:#000000" />
	<path
   class="st0"
   d="m 692.3,180.8 c -36.2,0 -65.6,29.4 -65.6,65.6 0,36.2 29.4,65.6 65.6,65.6 36.2,0 65.6,-29.4 65.6,-65.6 0,-36.1 -29.5,-65.6 -65.6,-65.6 z m 0,104.9 c -21.9,0 -39.5,-17.8 -39.5,-39.5 0,-21.9 17.8,-39.5 39.5,-39.5 21.7,0 39.5,17.8 39.5,39.5 0,21.9 -17.8,39.5 -39.5,39.5 z"
   id="path6"
   inkscape:connector-curvature="0"
   style="fill:#000000" />
	<path
   class="st0"
   d="m 269.2,217.2 c 0,52.1 42.5,94.6 94.6,94.6 h 27.9 V 122.6 h -27.9 c -52.1,0 -94.6,42.5 -94.6,94.6 z"
   id="path8"
   inkscape:connector-curvature="0"
   style="fill:#000000" />
	<path
   class="st0"
   d="m 150.5,122.6 h -27.9 v 189.3 h 27.9 c 52.1,0 94.6,-42.5 94.6,-94.6 0,-52.1 -42.5,-94.7 -94.6,-94.7 z"
   id="path10"
   inkscape:connector-curvature="0"
   style="fill:#000000" />
	<path
   class="st0"
   d="m 895.5,180.9 c -13.9,0 -26.9,4.4 -37.5,11.8 V 122.6 H 829.2 V 311.9 H 858 v -11.6 c 10.6,7.4 23.6,11.8 37.5,11.8 36.2,0 65.6,-29.4 65.6,-65.6 0,-36.2 -29.5,-65.6 -65.6,-65.6 z m 0,104.8 c -17.5,0 -32.3,-11.4 -37.5,-27.1 -1.3,-3.9 -2,-8.1 -2,-12.5 0,-4.4 0.7,-8.6 2,-12.5 5.2,-15.8 20.1,-27.1 37.5,-27.1 21.7,0 39.5,17.8 39.5,39.5 0,22.1 -17.8,39.7 -39.5,39.7 z"
   id="path12"
   inkscape:connector-curvature="0"
   style="fill:#000000" />
	<path
   class="st0"
   d="m 517.5,122.5 h -68.4 v 189.3 h 68.4 c 52.2,0 94.6,-42.5 94.6,-94.6 0,-52.2 -42.4,-94.7 -94.6,-94.7 z m 0,160.6 H 477.8 V 151.2 h 39.7 c 36.3,0 65.9,29.6 65.9,65.9 0,36.4 -29.6,66 -65.9,66 z"
   id="path14"
   inkscape:connector-curvature="0"
   style="fill:#000000" />
	<path
   class="st0"
   d="m 1066.2,181 -37.4,84 -37.4,-84 h -31.3 l 53.1,119.2 c 0,0 -13,29.2 -13,29.3 -3.4,7.7 -12.5,11.2 -20.2,7.8 l -4.1,-1.8 -11.6,26 v 0 0 0 l 9.9,4.4 c 18.7,8.3 40.7,-0.1 49,-18.8 0.1,-0.2 67.9,-151.8 74.3,-166.1 z"
   id="path16"
   inkscape:connector-curvature="0"
   style="fill:#000000" />
</g>
</svg>