<?xml version="1.0" encoding="UTF-8"?>
<svg id="Layer_1" data-name="Layer 1" xmlns="http://www.w3.org/2000/svg" viewBox="0 0 850.7 272.42">
  <defs>
    <style>
      .cls-1 {
        letter-spacing: -.04em;
      }

      .cls-2 {
        letter-spacing: -.04em;
      }

      .cls-3 {
        stroke: #000;
      }

      .cls-3, .cls-4 {
        fill: none;
        stroke-miterlimit: 8;
        stroke-width: 7.25px;
      }

      .cls-4 {
        stroke: #3cbae0;
      }

      .cls-5 {
        letter-spacing: -.01em;
      }

      .cls-6 {
        letter-spacing: -.04em;
      }

      .cls-7 {
        letter-spacing: -.04em;
      }

      .cls-8 {
        font-family: LevelOne, LevelOne;
        font-size: 138px;
      }
    </style>
  </defs>
  <path class="cls-4" d="m110.26,33.84c52.72-1.58,96.74,39.87,98.32,92.59.38,12.67-1.76,25.29-6.31,37.12"/>
  <path class="cls-4" d="m55.17,249.21c-33.46-24.72-46.94-68.35-33.27-107.64"/>
  <circle class="cls-4" cx="121.12" cy="151.3" r="117.5"/>
  <circle class="cls-3" cx="120.62" cy="151.8" r="62"/>
  <path class="cls-3" d="m205.54,152.7c-13.34,50.78-65.75,81.25-117.06,68.05-34.92-8.98-61.81-36.59-69.59-71.46"/>
  <path class="cls-3" d="m18.94,151.95c11.52-51.19,62.35-83.35,113.54-71.83,36.85,8.29,65.29,37.63,72.43,74.72"/>
  <text class="cls-8" transform="translate(296.94 117.3)"><tspan class="cls-5" x="0" y="0">eyevin</tspan><tspan x="340.71" y="0">n</tspan></text>
  <text class="cls-8" transform="translate(298.29 239.3)"><tspan class="cls-2" x="0" y="0">t</tspan><tspan class="cls-6" x="40.02" y="0">e</tspan><tspan class="cls-1" x="96.74" y="0">chno</tspan><tspan class="cls-7" x="342.38" y="0">l</tspan><tspan class="cls-1" x="368.46" y="0">o</tspan><tspan class="cls-7" x="428.21" y="0">g</tspan><tspan x="491.55" y="0">y</tspan></text>
</svg>