<svg xmlns:dc="http://purl.org/dc/elements/1.1/" xmlns:cc="http://creativecommons.org/ns#"
  xmlns:rdf="http://www.w3.org/1999/02/22-rdf-syntax-ns#" xmlns:svg="http://www.w3.org/2000/svg"
  xmlns="http://www.w3.org/2000/svg"
  viewBox="52.5478630065918 39.35333251953125 1651.8653564453125 323.4226989746094"
  xml:space="preserve" id="svg2" version="1.1"><metadata id="metadata8"><rdf:rdf><cc:work rdf:about=""><dc:format>image/svg+xml</dc:format><dc:type rdf:resource="http://purl.org/dc/dcmitype/StillImage"></dc:type></cc:work></rdf:rdf></metadata><defs id="defs6"></defs><g transform="matrix(1.3333333,0,0,-1.3333333,0,402.13333)" id="g10"><g transform="scale(0.1)" id="g12"><path id="path14" style="fill:#273473;fill-opacity:1;fill-rule:nonzero;stroke:none" d="m 4165.82,865.359 c 184.24,0 322.05,35.973 413.53,107.891 91.4,71.94 137.16,173.14 137.16,303.61 0,67.23 -8.74,124.37 -26.21,171.46 -17.51,47.04 -44.05,88.04 -79.68,123.06 -35.66,34.94 -80.39,65.54 -134.17,91.78 -53.78,26.21 -116.98,52.76 -189.58,79.64 -34.98,12.1 -66.94,23.9 -95.83,35.33 -28.93,11.38 -54.46,24.17 -76.66,38.31 -22.2,14.14 -39.33,29.91 -51.43,47.42 -12.1,17.47 -18.15,38.98 -18.15,64.55 0,43 16.45,74.92 49.43,95.79 32.93,20.84 87.05,31.28 162.35,31.28 67.24,0 124.75,-7.75 172.48,-23.18 47.73,-15.47 91.07,-33.32 130.1,-53.48 l 90.79,248.13 c -44.39,24.19 -100.86,46.36 -169.46,66.55 -68.59,20.15 -149.94,30.25 -244.07,30.25 -79.38,0 -150.63,-9.75 -213.82,-29.27 -63.23,-19.47 -117.01,-47.38 -161.37,-83.69 -44.39,-36.31 -78.66,-80.36 -102.9,-132.1 -24.16,-51.8 -36.3,-109.93 -36.3,-174.52 0,-64.52 11.42,-119.35 34.3,-164.39 22.84,-45.04 52.45,-83.39 88.75,-114.96 36.34,-31.63 77.34,-57.84 123.06,-78.67 45.69,-20.88 91.45,-39.36 137.16,-55.48 104.91,-34.98 178.85,-67.57 221.92,-97.83 43,-30.25 64.51,-68.3 64.51,-113.98 0,-21.52 -3.36,-41 -10.05,-58.51 -6.77,-17.47 -18.87,-32.6 -36.31,-45.38 -17.51,-12.78 -40.72,-22.87 -69.62,-30.25 -28.93,-7.41 -65.54,-11.12 -109.93,-11.12 -88.76,0 -163.75,9.12 -224.91,27.27 -61.22,18.14 -112.65,38.61 -154.33,61.49 l -88.76,-250.122 c 18.84,-10.777 42.02,-22.168 69.62,-34.269 27.54,-12.098 60.51,-23.547 98.82,-34.297 38.35,-10.742 82.37,-19.82 132.14,-27.223 49.73,-7.39 105.55,-11.09 167.42,-11.09 v 0"></path><path id="path16" style="fill:#273473;fill-opacity:1;fill-rule:nonzero;stroke:none" d="m 5539.35,1954.63 c -13.49,-52.45 -28.72,-109.29 -45.55,-170.45 -16.89,-61.22 -34.47,-123.06 -52.69,-185.6 -18.22,-62.51 -36.78,-123.4 -55.71,-182.54 -18.9,-59.22 -37.13,-112.97 -54.67,-161.37 -18.9,48.4 -38.85,102.15 -59.76,161.37 -20.93,59.14 -41.57,120.03 -61.8,182.54 -20.26,62.54 -39.5,124.38 -57.75,185.6 -18.22,61.16 -34.13,118 -47.6,170.45 H 4785.1 c 60.51,-208.45 125.07,-396.41 193.7,-563.82 68.6,-167.42 137.23,-318.39 205.9,-452.83 -20.23,-51.089 -44.77,-91.101 -73.7,-120.07 -28.96,-28.859 -70.3,-43.34 -124.07,-43.34 -26.93,0 -52.53,2.008 -76.76,6.059 -24.17,4.043 -51.77,11.41 -82.75,22.152 L 4775.01,562.75 c 25.59,-10.738 58.23,-20.488 97.97,-29.219 39.7,-8.742 83.14,-13.133 130.29,-13.133 56.57,0 106.03,6.403 148.45,19.172 42.43,12.782 80.5,32.981 114.16,60.52 33.65,27.601 64.65,62.512 92.93,104.898 28.29,42.352 56.57,93.793 84.85,154.301 78.22,168.091 150.35,341.561 216.4,520.441 66.09,178.81 129.42,370.46 190.1,574.9 h -310.81"></path><path id="path18" style="fill:#273473;fill-opacity:1;fill-rule:nonzero;stroke:none" d="m 6748.8,1300.06 c -10.09,33.55 -27.56,64.08 -52.45,91.62 -24.88,27.46 -58.8,53.1 -101.87,76.82 -43.04,23.73 -97.5,47.8 -163.38,72.2 -32.26,12.17 -58.81,23.35 -79.68,33.56 -20.84,10.16 -37.32,19.58 -49.39,28.38 -12.1,8.74 -20.19,17.78 -24.24,27.19 -4,9.42 -6.05,20.2 -6.05,32.3 0,52.42 47.05,78.69 141.22,78.69 51.08,0 97.14,-4.73 138.18,-14.14 41,-9.41 78.96,-20.18 113.97,-32.26 l 52.43,233.98 c -34.99,13.4 -82.04,25.87 -141.19,37.32 -59.18,11.39 -121.01,17.14 -185.59,17.14 -129.11,0 -230.62,-28.93 -304.59,-86.76 -73.97,-57.82 -110.92,-136.48 -110.92,-235.97 0,-51.13 7.34,-94.82 22.17,-131.12 14.78,-36.3 35.62,-67.58 62.51,-93.78 26.88,-26.28 59.52,-48.79 97.87,-67.62 38.34,-18.83 81,-37.02 128.09,-54.45 60.5,-22.89 105.54,-43.35 135.15,-61.54 29.57,-18.11 44.33,-39.29 44.33,-63.53 0,-30.93 -11.42,-51.77 -34.27,-62.51 -22.84,-10.78 -61.87,-16.16 -117,-16.16 -52.45,0 -105.59,5.72 -159.33,17.14 -53.82,11.42 -106.27,27.23 -157.35,47.43 l -50.45,-244.092 c 24.24,-10.808 67.58,-24.226 130.13,-40.339 62.54,-16.149 140.87,-24.207 235,-24.207 143.88,0 255.15,26.859 333.84,80.5 78.7,53.636 117.99,132.848 117.99,237.508 0,44.27 -5.03,83.18 -15.13,116.7 v 0"></path><path id="path20" style="fill:#273473;fill-opacity:1;fill-rule:nonzero;stroke:none" d="m 7545.56,1132.62 c -34.26,-6.06 -67.58,-9.08 -99.83,-9.08 -67.28,0 -111.97,18.83 -134.14,56.46 -22.2,37.67 -33.28,88.08 -33.28,151.31 v 373.21 h 361.04 v 250.09 h -361.04 v 312.68 l -300.57,-48.41 V 1327.3 c 0,-68.64 6.36,-131.15 19.14,-187.65 12.81,-56.43 35.31,-104.56 67.58,-144.201 32.32,-39.668 75.32,-70.609 129.1,-92.758 53.78,-22.242 121.7,-33.32 203.76,-33.32 64.55,0 119.01,5.367 163.37,16.149 44.4,10.769 84.72,23.511 121.03,38.339 l -42.37,233.971 c -28.21,-10.77 -59.48,-19.17 -93.79,-25.21 v 0"></path><path id="path22" style="fill:#273473;fill-opacity:1;fill-rule:nonzero;stroke:none" d="m 8300.97,1982.85 c -64.52,0 -127.41,-12.1 -188.63,-36.31 -61.22,-24.2 -115.27,-59.82 -162.32,-106.9 -47.11,-47.08 -85.12,-105.89 -113.98,-176.49 -28.96,-70.61 -43.38,-153.01 -43.38,-247.1 0,-78.02 11.09,-150.63 33.28,-217.88 22.2,-67.26 56.5,-125.4 102.9,-174.48 46.4,-49.088 104.87,-87.741 175.47,-115.979 70.58,-28.262 153.63,-42.371 249.11,-42.371 37.67,0 75.3,2.012 112.96,6.058 37.67,4.012 72.95,9.071 105.93,15.122 32.87,6.062 62.78,13.089 89.74,21.191 26.89,8.051 48.44,16.141 64.56,24.199 l -40.35,244.11 c -33.6,-14.83 -77.01,-27.27 -130.13,-37.37 -53.14,-10.09 -107.22,-15.12 -162.35,-15.12 -86.12,0 -154.64,18.18 -205.78,54.49 -51.12,36.31 -80.02,85.36 -86.7,147.23 h 681.8 c 1.33,16.15 2.62,34.6 4.02,55.47 1.31,20.84 2,40.01 2,57.48 0,178.88 -43.75,314.35 -131.08,406.5 -87.47,92.06 -206.44,138.15 -357.07,138.15 z M 8101.3,1531.01 c 4,25.52 10.36,50.75 19.13,75.67 8.77,24.82 21.21,46.71 37.32,65.54 16.15,18.8 36.35,33.96 60.51,45.38 24.17,11.39 53.13,17.14 86.72,17.14 34.95,0 64.24,-6.06 87.74,-18.13 23.56,-12.1 43.07,-27.57 58.54,-46.39 15.46,-18.87 26.85,-40.36 34.26,-64.59 7.38,-24.17 11.83,-49.1 13.12,-74.62 H 8101.3"></path><path id="path24" style="fill:#273473;fill-opacity:1;fill-rule:nonzero;stroke:none" d="m 10402.9,1843.66 c -32.3,43.04 -75.7,76.32 -130.1,99.88 -54.5,23.48 -124.1,35.28 -208.8,35.28 -47.1,0 -98.52,-8.73 -154.3,-26.24 -55.86,-17.47 -105.28,-41.68 -148.28,-72.61 -30.96,26.92 -70.26,50.1 -118.03,69.62 -47.72,19.47 -109.94,29.23 -186.59,29.23 -38.99,0 -78.66,-1.7 -119.01,-5.07 -40.31,-3.33 -79.65,-8.02 -117.96,-14.07 -38.38,-6.05 -74.68,-12.81 -108.94,-20.19 -34.3,-7.41 -64.25,-14.48 -89.78,-21.18 V 893.582 h 300.57 v 818.968 c 18.79,2.69 38.35,5.07 58.5,7.07 20.16,2.04 39.64,3.03 58.51,3.03 60.51,0 103.16,-20.2 128.08,-60.55 24.85,-40.31 37.33,-108.92 37.33,-205.73 V 893.582 h 300.54 v 578.938 c 0,38.96 -1.33,75.64 -4.05,109.93 -2.68,34.31 -8.77,66.87 -18.15,97.83 18.83,12.11 42.69,22.17 71.59,30.27 28.93,8.05 51.47,12.1 67.57,12.1 60.5,0 103.2,-20.2 128.1,-60.55 24.9,-40.31 37.3,-108.92 37.3,-205.73 V 893.582 h 300.6 v 599.138 c 0,72.6 -6.1,138.45 -18.2,197.66 -12.1,59.15 -34.3,110.25 -66.5,153.28 v 0"></path><path id="path26" style="fill:#273473;fill-opacity:1;fill-rule:nonzero;stroke:none" d="m 11683.8,2075.64 v 217.87 h -978.3 v -256.17 h 607.1 c -47,-65.92 -93.4,-144.24 -139.1,-235.03 -45.8,-90.77 -87.2,-187.28 -124.1,-289.43 -37,-102.21 -68.3,-206.44 -93.8,-312.7 -25.6,-106.23 -42.4,-208.45 -50.4,-306.598 h 304.6 c 8,121.018 29.2,242.078 63.5,363.088 34.3,121.02 74.7,234.32 121.1,339.9 46.3,105.55 95.4,199.98 147.2,283.41 51.7,83.38 99.1,148.59 142.2,195.66 v 0"></path><path id="path28" style="fill:#273473;fill-opacity:1;fill-rule:nonzero;stroke:none" d="m 12750.8,1130.96 c 21.5,54.52 32.3,114.08 32.3,178.74 0,82.13 -19.8,152.46 -59.5,211.06 -39.7,58.54 -95.8,102.66 -168.4,132.31 52.4,26.85 94.1,66.11 125.1,117.82 30.9,51.67 46.4,105.07 46.4,160.11 0,56.42 -9.5,108.43 -28.3,156.09 -18.9,47.67 -47.7,89.31 -86.7,124.86 -39.1,35.59 -88.5,63.09 -148.3,82.57 -59.9,19.52 -130.8,29.24 -212.8,29.24 -44.4,0 -86.5,-4.05 -126.1,-12.11 -39.7,-8.06 -77,-18.14 -111.9,-30.25 -35,-12.1 -66.9,-25.56 -95.9,-40.35 -28.9,-14.82 -54.1,-28.93 -75.6,-42.36 l 106.9,-219.87 c 40.4,25.54 85.1,47.09 134.1,64.56 49.1,17.44 102.6,26.21 160.4,26.21 22.9,0 45.4,-3.03 67.6,-9.08 22.2,-6.05 41.6,-15.13 58.5,-27.23 16.8,-12.1 30.6,-27.57 41.3,-46.4 10.8,-18.86 16.2,-41.03 16.2,-66.56 0,-33.62 -6.4,-61.53 -19.2,-83.69 -12.8,-22.2 -29.9,-39.71 -51.4,-52.45 -21.6,-12.82 -46.1,-21.86 -73.6,-27.24 -27.6,-5.4 -56.2,-8.08 -85.8,-8.08 H 12063 v -242.07 h 117 c 41.7,0 81,-2.99 118,-9.04 37,-6.09 68.9,-16.86 95.8,-32.3 26.9,-15.5 48.1,-35.62 63.6,-60.51 15.4,-24.91 23.2,-55.48 23.2,-91.77 0,-59.19 -21.6,-106.24 -64.6,-141.22 -43,-34.98 -111,-52.42 -203.8,-52.42 -80.6,0 -148.2,8.36 -202.7,25.16 -54.4,16.82 -99.2,32.64 -134.1,47.45 l -58.5,-250.16 c 17.5,-8.05 41.7,-16.82 72.6,-26.21 30.9,-9.438 65.2,-18.141 102.9,-26.239 37.6,-8.051 76.7,-14.441 117,-19.14 40.3,-4.692 78.7,-7.071 115,-7.071 96.8,0 180.5,11.121 251.1,33.321 70.6,22.23 128.8,53.23 174.5,92.898 45.7,39.741 79.3,86.861 100.8,141.421 v 0"></path><path id="path30" style="fill:#273473;fill-opacity:1;fill-rule:nonzero;stroke:none" d="m 2453.75,1529.71 c 98.06,-0.21 177.69,79.16 177.87,177.25 l 1.25,252.16 c 0.18,98.07 -79.19,177.7 -177.25,177.87 -49.15,0.09 -93.63,-19.77 -125.86,-52.01 -32.06,-32.05 -51.93,-76.3 -52.01,-125.24 l -1.25,-252.16 c -0.18,-98.07 79.18,-177.7 177.25,-177.87 v 0"></path><path id="path32" style="fill:#273473;fill-opacity:1;fill-rule:nonzero;stroke:none" d="m 1107.53,1741.29 c 52.21,24.77 110.95,27.63 165.35,8.19 43.38,-15.51 79.34,-44.13 104.89,-81.4 l -0.82,875.31 c -0.05,98.07 -79.6,177.52 -177.69,177.46 -98.03,-0.09 -177.49,-79.63 -177.43,-177.69 l 0.79,-874.99 c 21.38,31.06 49.94,56.62 84.91,73.12 v 0"></path><path id="path34" style="fill:#273473;fill-opacity:1;fill-rule:nonzero;stroke:none" d="m 1828.45,2415.37 c 73.53,0 138.46,-37.07 177.55,-93.34 v 221.24 c 0,98.07 -79.48,177.58 -177.55,177.58 -98.06,-0.03 -177.55,-79.51 -177.58,-177.58 v -221.21 c 39.12,56.27 104.01,93.31 177.58,93.31 v 0"></path><path id="path36" style="fill:#273473;fill-opacity:1;fill-rule:nonzero;stroke:none" d="m 1920.36,634.078 c -29.81,-14.09 -61.22,-20.769 -92.17,-20.769 -69.83,0 -137.06,34.07 -178.04,93.281 l -0.53,-233.508 c -0.18,-98.07 79.17,-177.73 177.23,-177.902 49.18,-0.09 93.69,19.8 125.89,52.011 32.06,32.051 51.92,76.329 52,125.239 l 0.53,235.16 c -20.91,-30.508 -49.12,-56.559 -84.91,-73.512 v 0"></path><path id="path38" style="fill:#273473;fill-opacity:1;fill-rule:nonzero;stroke:none" d="m 574.461,1497.92 c -98.066,0.21 -177.695,-79.16 -177.871,-177.25 l -1.258,-252.16 c -0.168,-98.069 79.195,-177.701 177.258,-177.869 49.121,-0.121 93.633,19.769 125.863,52.007 32.055,32.051 51.918,76.302 52.008,125.242 l 1.254,252.17 c 0.176,98.06 -79.195,177.69 -177.254,177.86 v 0"></path><path id="path40" style="fill:#273473;fill-opacity:1;fill-rule:nonzero;stroke:none" d="m 1828.45,1982.66 c -73.57,0 -138.46,37.04 -177.58,93.3 v -369.94 c 0,-98.06 79.52,-177.57 177.58,-177.57 49.03,0.03 93.4,19.89 125.54,52 32.14,32.15 52.01,76.54 52.01,125.57 v 369.94 c -39.09,-56.26 -104.02,-93.3 -177.55,-93.3 v 0"></path><path id="path42" style="fill:#273473;fill-opacity:1;fill-rule:nonzero;stroke:none" d="m 1292.55,1350.23 c -29.37,-13.92 -60.82,-20.92 -92.37,-20.92 -24.56,0 -49.18,4.2 -72.98,12.71 -43.05,15.4 -78.84,43.64 -104.34,80.51 l 0.24,-269.08 c 0.08,-98.06 79.63,-177.52 177.69,-177.462 48.97,0.063 93.34,19.922 125.42,52.042 32.18,32.14 52.04,76.59 52.01,125.65 l -0.24,270.39 c -21.4,-31.41 -50.16,-57.19 -85.43,-73.84 v 0"></path><path id="path44" style="fill:#273473;fill-opacity:1;fill-rule:nonzero;stroke:none" d="m 1735.26,1025.21 c 97.22,46.24 211.59,12.37 270.57,-73.94 l 0.17,76.42 c 0.18,98.09 -79.16,177.72 -177.22,177.9 -98.1,0.17 -177.7,-79.16 -177.9,-177.26 l -0.18,-75.869 c 21.32,30.859 49.77,56.269 84.56,72.749 v 0"></path><path id="path46" style="fill:#273473;fill-opacity:1;fill-rule:nonzero;stroke:none" d="m 1200.03,705.648 c -99.08,0 -179.41,-80.328 -179.41,-179.418 0,-99.082 80.33,-179.41 179.41,-179.41 99.09,0 179.41,80.328 179.41,179.41 0,99.09 -80.32,179.418 -179.41,179.418 v 0"></path><path id="path48" style="fill:#273473;fill-opacity:1;fill-rule:nonzero;stroke:none" d="m 573.523,2132.57 c -99.089,0 -179.414,-80.33 -179.414,-179.41 0,-99.09 80.325,-179.42 179.414,-179.42 99.086,0 179.415,80.33 179.415,179.42 0,99.08 -80.329,179.41 -179.415,179.41 v 0"></path><path id="path50" style="fill:#273473;fill-opacity:1;fill-rule:nonzero;stroke:none" d="m 2454.68,1253.88 c -99.08,0 -179.41,-80.33 -179.41,-179.42 0,-99.081 80.33,-179.409 179.41,-179.409 99.09,0 179.42,80.328 179.42,179.409 0,99.09 -80.33,179.42 -179.42,179.42 v 0"></path><path id="path52" style="fill:#e62727;fill-opacity:1;fill-rule:nonzero;stroke:none" d="m 1828.45,2327.62 c -70.91,0 -128.6,-57.7 -128.6,-128.64 0,-70.87 57.69,-128.57 128.6,-128.57 70.88,0 128.57,57.7 128.57,128.57 0,70.94 -57.69,128.64 -128.57,128.64 v 0"></path><path id="path54" style="fill:#e62727;fill-opacity:1;fill-rule:nonzero;stroke:none" d="m 1316.25,1600.78 c -14.67,31.04 -40.57,54.51 -72.92,66.07 -14.11,5.07 -28.76,7.55 -43.34,7.55 -18.76,0 -37.48,-4.15 -54.95,-12.4 -31.07,-14.67 -54.52,-40.6 -66.1,-72.95 -11.55,-32.31 -9.86,-67.23 4.84,-98.27 14.73,-31.09 40.6,-54.57 72.95,-66.09 32.41,-11.64 67.26,-9.83 98.33,4.84 31.03,14.67 54.48,40.58 66.06,72.92 11.55,32.32 9.86,67.3 -4.84,98.27 l -0.03,0.06"></path><path id="path56" style="fill:#e62727;fill-opacity:1;fill-rule:nonzero;stroke:none" d="m 1827.6,958.219 c -18.4,0 -37.07,-3.957 -54.81,-12.297 -31.03,-14.742 -54.51,-40.641 -66.06,-72.953 -11.58,-32.379 -9.86,-67.297 4.84,-98.27 30.34,-64.109 107.07,-91.558 171.27,-61.308 64.09,30.359 91.54,107.16 61.23,171.238 -21.99,46.41 -68.28,73.59 -116.47,73.59 v 0"></path></g></g></svg>