<svg xmlns:svg="http://www.w3.org/2000/svg" xmlns="http://www.w3.org/2000/svg" version="1.1"
   id="svg3508" width="1024" height="162" viewBox="0 0 883.4061889648438 133.11880493164062">
   <defs id="defs3510"></defs>
   <path
      d="m 806.48125,102.1659 c -0.34626,9.6494 7.4175,17.7456 17.02874,17.7456 9.09876,0 16.47626,-6.3736 16.47626,-15.6754 0,-11.3735 -8.925,-15.5092 -18.19125,-18.0922 -6.01125,-1.897 -12.36625,-3.79 -17.0475,-8.27 -5.03,-4.4785 -7.63251,-11.1973 -7.63251,-17.916 0,-15.3409 12.48875,-26.3931 27.25376,-26.3931 14.075,0 26.02875,11.7456 26.02875,25.5273 l -12.8125,0 c 0,-8.2676 -6.34876,-13.2666 -14.5925,-13.2666 -7.20875,0 -13.04375,5.8619 -13.04375,13.0981 0,10.337 8.24249,13.0924 16.47874,15.6788 14.07875,4.48 26.39626,10.5079 26.39626,27.5635 0,17.7456 -13.00626,30.0088 -30.51376,30.0088 -16.0025,0 -29.50875,-13.9859 -28.64999,-30.0088 l 12.82125,0 m -119.48876,27.9262 12.13751,0 0,-16.1221 c 7.4325,12.1949 24.0175,18.2208 37.665,18.2208 13.81874,0 25.56749,-3.4624 38.7,-18.2208 5.2075,-5.707 11.27875,-17.8149 11.27875,-31.4731 0,-28.019 -23.72,-48.9321 -51.1875,-48.9321 -13.99,0 -29.54,6.5635 -35.76,19.7021 l 0,-50.8971 -12.83376,0 0,127.7223 z M 735.93,45.8255 c 21.07874,0 38.00749,15.5689 38.00749,37.0166 0,20.5802 -16.585,37.3535 -37.14249,37.3535 -20.73376,0 -37.83625,-15.3906 -37.83625,-36.4877 0,-10.3814 2.5925,-19.0259 10.025,-26.4615 7.07749,-7.2665 16.75624,-11.4209 26.94625,-11.4209 m -63.7875,-10.1757 -12.25875,0 0,17.9751 C 652.8075,40.1419 637.7975,33.5453 622.96124,33.5453 c -13.10874,0 -26.3925,4.6972 -40.72874,20.0796 -3.46875,3.1137 -9.88626,16.08 -9.88626,28.7006 0,14.3584 5.89751,26.2856 9.3675,30.0894 12.09625,13.75 27.44625,19.7759 41.59375,19.7759 14.835,0 29.3275,-6.5347 36.57625,-19.772 l 0,17.6733 12.26,0 -10e-4,-94.4423 z m -49.18125,10.1895 c 21.05125,0 36.9225,16.7772 36.9225,37.6986 0,19.7154 -16.91,36.6577 -36.57625,36.6577 -20.1825,0 -38.1275,-16.08 -38.1275,-36.8276 0,-20.9247 17.0825,-37.5287 37.78125,-37.5287 M 512.3775,2.3698 l 12.83625,0 0,116.0573 52.795,0 0,11.6338 -65.63126,0 0,-127.6911 m -13.13625,89.9391 c 0.5175,-3.6245 1.20375,-7.25 1.20375,-10.8804 0,-26.4882 -21.65125,-49.9594 -48.995,-49.9594 -28.73,0 -50.81375,23.3018 -50.81375,51.3413 0,27.8091 22.6025,50.2607 50.4675,50.2607 20.25375,0 40.06375,-13.6396 45.90625,-30.7426 l -25.30625,0 c -4.5025,5.0108 -12.8125,8.291 -21.465,8.291 -11.5975,0 -21.80875,-7.2564 -25.27375,-18.3106 l 74.27625,0 z M 424.62,71.933 c 3.46,-10.877 15.23125,-18.0132 26.65625,-18.0132 11.775,0 22.33,6.795 26.13625,18.0132 l -52.7925,0 m -61.20625,58.1591 23.03125,0 0,-127.7225 -23.03125,0 0,127.7225 z m -113.97625,-0.031 21.125,0 0,-13.0097 c 7.60249,11.2798 19.34749,16.0674 32.4725,16.0674 13.2975,0 26.605,-5.6587 35.09,-16.0674 7.61875,-8.9976 12.4675,-23.2618 12.295,-34.7739 0,-26.8106 -20.085,-50.8081 -48.075,-50.8081 -10.88001,0 -23.14251,3.7997 -29.87751,13.125 l 0,-42.2244 -23.03125,0 0.001,127.6911 z M 299.92874,53.92 c 16.40626,0 27.46126,12.7187 27.46126,28.5293 0,15.978 -11.22625,28.1835 -27.46126,28.1835 -17.27125,0 -28.8475,-12.8906 -28.8475,-29.559 0,-15.8096 13.47626,-27.1538 28.8475,-27.1538 m -67.655,-19.4419 -20.98875,0 c 0,13.5312 0,13.5312 0,13.5312 -7.60125,-10.7538 -18.9975,-16.5878 -32.12375,-16.5878 -13.98875,0 -25.90875,5.311 -35.605,16.5878 -8.83,10.0284 -12.2925,21.0269 -12.2925,34.2618 0,13.2362 4.3275,25.6104 11.94625,34.7802 8.3125,9.8887 20.41,16.0674 35.26,16.0674 12.09,0 25.56125,-6.1787 32.815,-16.0674 l 0,13.0098 20.98875,0 0,-95.583 z m -21.68,47.6196 c 0,16.3296 -11.3975,28.706 -27.97625,28.5351 -15.545,0.1709 -28.32625,-11.8593 -28.32625,-27.5 0,-16.6747 11.745,-29.396 28.67125,-29.2236 16.23375,-0.1724 27.63125,12.2021 27.63125,28.1885 m -85.215,13.1176 C 115.70649,118.3428 90.83987,133.065 66.1445,133.065 29.53275,133.065 0,102.4517 0,66.1016 0,30.0957 29.877,0 65.45212,0 c 25.56013,0 50.7725,14.8921 60.61537,38.8833 l -26.93962,0 C 91.18412,29.234 78.40575,23.0298 65.625,23.0298 c -23.3145,0 -41.96438,20.1583 -41.96438,43.9352 0,22.5643 19.34138,43.0673 42.13725,43.0673 12.60788,0 23.48625,-5.6871 32.1215,-14.817 l 27.45937,0"
      style="fill:#000000;fill-opacity:1;fill-rule:nonzero;stroke:none" id="path3418"></path>
   <path
      d="m 868.13125,30.1523 0,-4.4805 2.96375,0 c 1.515,0 3.1275,0.3335 3.1275,2.1225 0,2.2251 -1.6425,2.358 -3.48875,2.358 l -2.6025,0 z m 0,1.8378 2.50125,0 3.79499,6.2632 2.4475,0 -4.09874,-6.3618 c 2.11,-0.2627 3.735,-1.3795 3.735,-3.9615 0,-2.8471 -1.69001,-4.0942 -5.0875,-4.0942 l -5.475,0 0,14.4175 2.1825,0 0,-6.2632 z m 2.63625,11.542 c 6.80375,0 12.63874,-5.2788 12.63874,-12.5263 0,-7.17 -5.835,-12.5133 -12.63874,-12.5133 -6.8625,0 -12.6825,5.3433 -12.6825,12.5133 0,7.2475 5.82,12.5263 12.6825,12.5263 z M 860.605,31.0058 c 0,-5.9229 4.45624,-10.4454 10.1625,-10.4454 5.64625,0 10.12,4.5225 10.12,10.4454 0,6.02 -4.47375,10.4618 -10.12,10.4618 -5.70625,0 -10.1625,-4.4418 -10.1625,-10.4618"
      style="fill:#000000;fill-opacity:1;fill-rule:nonzero;stroke:none" id="path3420"></path>
</svg>