<svg xmlns="http://www.w3.org/2000/svg" viewBox="71.62 251.45 979.3 290.82">
    <defs>
        <clipPath id="a" clipPathUnits="userSpaceOnUse">
            <path d="M0 595.276h841.89V0H0Z" />
        </clipPath>
    </defs>
    <g clip-path="url(#a)" transform="matrix(1.33333 0 0 -1.33333 0 793.701)">
        <path
            d="M243.538 360.333h8.504v10.204h-8.504zm14.201 0h8.504v10.204h-8.504zm32.362-49.663h47.111v8.248h-31.124l31.124 31.295v4.337h-44.05v-7.824H320.8l-30.699-31.294zm75.016 0h10.29v19.899l22.705 23.981h-11.99l-15.137-16.838-15.051 16.838h-13.607l22.79-24.236zm-127.064 8.248h33.676v27.808h-33.676ZM53.717 336.734h174.131v7.441c0 3.827.68 6.548 2.212 8.164 1.53 1.445 4.421 2.126 8.673 2.211h32.315c4.252 0 7.058-.68 8.589-2.211 1.531-1.446 2.296-4.167 2.296-8.164v-23.131c0-3.911-.765-6.632-2.296-8.163-1.531-1.446-4.337-2.126-8.589-2.211h-32.315c-4.167 0-7.058.68-8.673 2.126-1.447 1.445-2.127 4.166-2.212 8.248v7.441H53.717Zm352.079-26.064h45.326v8.248h-35.121v10.886h20.239v7.483h-20.239v9.779h34.696v7.484h-44.901zm101.06 36.056v-4.932l9.95 1.786v1.021c0 3.741-.766 6.292-2.296 7.738-1.531 1.531-4.337 2.211-8.589 2.211h-30.275c-4.251-.085-7.142-.766-8.673-2.211-1.531-1.616-2.211-4.337-2.211-8.164v-23.131c.085-4.082.765-6.803 2.211-8.248 1.616-1.446 4.506-2.126 8.673-2.126h30.275c4.252.085 7.142.765 8.674 2.126 1.53 1.616 2.211 4.337 2.211 8.248v15.138h-26.618v-7.484h16.668v-9.78h-31.889v27.808zm-28.373 21.169h24.601v-7.563h-24.601zm65.859-13.345h-10.205v-43.88h10.205zm69.701-17.816h174.13v-8.249h-174.13V310.67h-6.974l-32.229 27.127-2.041 1.871-1.616 1.701.255-3.912.17-3.061V310.67h-9.184v43.88h6.973l30.87-25.852 2.805-2.466 2.211-2.296-.34 5.187-.085 2.381v23.046h9.185zm-69.701 33.802h-10.205v-10.205h10.205zM53.717 196.845h734.457v-8.248H53.717Z"
            style="fill:#b00357;fill-opacity:1;fill-rule:evenodd;stroke:none;" />
        <path
            d="M53.717 406.679h734.456v-8.249H53.717ZM673.125 266.79h115.048v-8.249H673.125M53.717 266.79h108.068v-8.249H53.717"
            style="fill:#1c4f9c;fill-opacity:1;fill-rule:evenodd;stroke:none;" />
        <path
            d="M296.164 284.749h10.188v-43.875h-10.188zm-125.873-35.643h30.436v35.579h10.683v-33.408c0-3.929-.822-6.653-2.465-8.17-1.576-1.447-4.554-2.171-8.937-2.171h-28.999c-4.355 0-7.361.724-9.019 2.171-1.45 1.379-2.246 4.103-2.383 8.17v33.408h10.684zm56.91 35.58h7.352l37.179-29.064v29.064h9.606v-43.75h-7.355l-37.086 29.476v-29.476h-9.696z"
            style="fill:#1c4f9c;fill-opacity:1;fill-rule:nonzero;stroke:none;" />
        <path
            d="M296.173 284.686h10.684v-43.75h-10.684zm266.469 0h10.684v-43.75h-10.684zm-250.348 0h12.102l18.514-31.752 17.479 31.752h11.067l-25.341-43.75h-7.342zm64.095-.026h46.883v-7.722h-36.199v-9.519h21.098v-7.553h-21.098v-10.76h36.715v-8.17h-47.399zm69.644-7.568v-12.094h24.315c1.793 0 3.035.237 3.724.718.621.482 1 1.412 1.139 2.791v5.069c0 1.24-.379 2.136-1.139 2.689-.551.413-1.795.688-3.724.827zm-10.595 7.566h39.503c3.655 0 6.272-.69 7.858-2.069 1.515-1.173 2.306-3.31 2.379-6.412v-10.343c0-2.896-.793-5.033-2.379-6.413-1.586-1.172-4.203-1.828-7.858-1.966h-6.009l20.798-16.519h-15.306l-18.34 16.519h-10.051v-16.519h-10.595zm71.997-7.809v-9.211h28.474c4.35 0 7.352-.726 9.006-2.173 1.451-1.381 2.244-4.107 2.383-8.178v-6.001c0-4.002-.793-6.762-2.383-8.28-1.449-1.242-4.455-1.932-9.012-2.07h-28.379c-4.39 0-7.443.724-9.156 2.171-1.449 1.379-2.242 4.103-2.381 8.17v1.243l9.522 1.757v-5.171h32.181v10.049h-28.367c-4.42 0-7.457.727-9.113 2.178-1.449 1.381-2.244 4.108-2.381 8.185v4.87c0 4.007.795 6.699 2.377 8.082 1.52 1.38 4.553 2.14 9.107 2.279h25.965c4.135 0 7.102-.728 8.893-2.183 1.656-1.318 2.517-3.774 2.588-7.374v-1.034l-9.156-1.965v4.656zm106.432-35.913h-10.683v35.913h-21.102v7.9h52.986v-7.9h-21.201zm51.414 19.651-23.89 24.099h14.375l15.636-16.342 15.834 16.342h12.518l-23.789-23.891v-19.859h-10.684z"
            style="fill:#1c4f9c;fill-opacity:1;fill-rule:nonzero;stroke:none;" />
    </g>
</svg>