<?xml version="1.0" standalone="no"?>
<!DOCTYPE svg PUBLIC "-//W3C//DTD SVG 20010904//EN"
 "http://www.w3.org/TR/2001/REC-SVG-20010904/DTD/svg10.dtd">
<svg version="1.0" xmlns="http://www.w3.org/2000/svg"
 width="204.000000pt" height="204.000000pt" viewBox="0 0 204.000000 204.000000"
 preserveAspectRatio="xMidYMid meet">
<metadata>
Created by potrace 1.14, written by Peter Selinger 2001-2017
</metadata>
<g transform="translate(0.000000,204.000000) scale(0.100000,-0.100000)"
fill="#000000" stroke="none">
<path d="M0 1435 l0 -335 310 0 310 0 0 335 0 335 -310 0 -310 0 0 -335z"/>
<path d="M720 1435 l0 -335 315 0 315 0 0 335 0 335 -315 0 -315 0 0 -335z"/>
<path d="M1450 1435 l0 -335 295 0 295 0 0 335 0 335 -295 0 -295 0 0 -335z"/>
<path d="M0 810 l0 -190 310 0 310 0 0 190 0 190 -310 0 -310 0 0 -190z"/>
<path d="M720 810 l0 -190 315 0 315 0 0 190 0 190 -315 0 -315 0 0 -190z"/>
<path d="M1450 810 l0 -190 295 0 295 0 0 190 0 190 -295 0 -295 0 0 -190z"/>
<path d="M0 395 l0 -125 310 0 310 0 0 125 0 125 -310 0 -310 0 0 -125z"/>
<path d="M720 395 l0 -125 315 0 315 0 0 125 0 125 -315 0 -315 0 0 -125z"/>
<path d="M1450 395 l0 -125 295 0 295 0 0 125 0 125 -295 0 -295 0 0 -125z"/>
</g>
</svg>
