<svg xmlns="http://www.w3.org/2000/svg"
    viewBox="0 -0.0000019073486328125 568.739990234375 163.33998107910156">
    <defs>
        <style>.cls-1{fill:none;}.cls-2{fill:#1d1d1b;}.cls-3{fill:#06f;}</style>
    </defs>
    <g id="dashif-logo_Bild">
        <rect class="cls-3" y="1.43" width="61.95" height="66.96"></rect>
        <rect class="cls-3" x="71.98" y="1.43" width="63.02" height="66.96"></rect>
        <rect class="cls-3" x="145" y="1.43" width="59" height="66.98"></rect>
        <rect class="cls-3" y="78.43" width="61.95" height="38"></rect>
        <rect class="cls-3" x="71.98" y="78.43" width="63.02" height="38"></rect>
        <rect class="cls-3" x="145" y="78.43" width="58.97" height="38"></rect>
        <rect class="cls-3" y="126.42" width="61.95" height="25.01"></rect>
        <rect class="cls-3" x="71.98" y="126.42" width="63.02" height="25.01"></rect>
        <rect class="cls-3" x="145" y="126.42" width="59" height="25.01"></rect>
    </g>
    <g id="Ebene_2">
        <path class="cls-2"
            d="M529.46,124.77v27.47h4.7v-20.06c1.13-2.62,3.24-3.94,6.32-3.94,3.91,0,5.87,2,5.87,5.99v18h4.72v-18.23c.19-1.76,.86-3.16,2.01-4.2s2.6-1.56,4.34-1.56c2.12,0,3.62,.49,4.52,1.46,.9,.97,1.35,2.44,1.35,4.41v18.13h4.7v-18.41c-.1-6.38-3.17-9.57-9.19-9.57-2,0-3.73,.41-5.19,1.22-1.46,.81-2.65,1.88-3.57,3.2-1.39-2.95-4-4.42-7.85-4.42-3.42,0-6.14,1.19-8.15,3.56l-.13-3.05h-4.44Zm-11.98,27.47h4.47v-27.47h-4.7v19.98c-1.18,2.68-3.57,4.01-7.16,4.01-3.39,0-5.08-2.08-5.08-6.25v-17.75h-4.7v17.88c.02,3.34,.79,5.85,2.32,7.55,1.53,1.7,3.76,2.55,6.69,2.55,3.54,0,6.22-1.07,8.05-3.22l.1,2.72Zm-21.97-27.63c-.47-.24-1.17-.35-2.08-.35-2.83,0-5.01,1.23-6.55,3.68l-.08-3.17h-4.57v27.47h4.7v-19.5c1.1-2.62,3.19-3.93,6.27-3.93,.83,0,1.6,.06,2.31,.18v-4.37Zm-37.66,6.27c1.42-1.84,3.29-2.77,5.61-2.77s4.27,.94,5.7,2.81c1.43,1.87,2.15,4.31,2.15,7.32,0,3.37-.7,5.99-2.11,7.86-1.4,1.87-3.3,2.81-5.69,2.81s-4.26-.92-5.68-2.77c-1.41-1.85-2.12-4.29-2.12-7.34,0-3.44,.71-6.08,2.13-7.92m-6.86,7.69c0,4.27,1.16,7.69,3.47,10.28,2.31,2.59,5.33,3.88,9.05,3.88,2.47,0,4.66-.59,6.56-1.78,1.9-1.19,3.37-2.84,4.39-4.96,1.02-2.12,1.54-4.52,1.54-7.2v-.33c0-4.3-1.15-7.75-3.47-10.33-2.31-2.59-5.34-3.88-9.08-3.88-2.42,0-4.57,.58-6.46,1.75-1.89,1.17-3.36,2.83-4.42,4.98-1.06,2.15-1.59,4.57-1.59,7.26v.33Zm-6.1-6.65h-15.51v-12.67h18.03v-3.99h-22.9v36.97h4.88v-16.33h15.51v-3.99Zm-56.47-7.16h-5.13l9.8,27.17-1.04,2.79c-.58,1.71-1.31,2.89-2.2,3.53-.89,.64-2.13,.97-3.72,.97l-1.27-.1v3.81l1.75,.33,.89,.08c3.72,0,6.44-2.29,8.15-6.86l11.04-31.71h-5.03l-6.4,20.59-6.86-20.59Zm-7.03-.15c-.47-.24-1.17-.35-2.08-.35-2.83,0-5.01,1.23-6.55,3.68l-.08-3.17h-4.57v27.47h4.7v-19.5c1.1-2.62,3.19-3.93,6.27-3.93,.83,0,1.6,.06,2.31,.18v-4.37Zm-28.56-6.5v6.65h-5v3.63h5v17.04c0,2.34,.53,4.14,1.6,5.41,1.07,1.27,2.65,1.9,4.75,1.9,1.17,0,2.37-.17,3.61-.51v-3.79c-.95,.2-1.69,.3-2.24,.3-1.1,0-1.88-.28-2.34-.83-.46-.55-.68-1.38-.68-2.48v-17.06h5.13v-3.63h-5.13v-6.65h-4.7Zm-14.91,29.72c-1.07,.72-2.5,1.08-4.28,1.08-1.93,0-3.48-.46-4.66-1.38-1.18-.92-1.81-2.17-1.89-3.75h-4.7c0,1.62,.48,3.14,1.44,4.53,.96,1.4,2.28,2.48,3.97,3.26,1.69,.78,3.64,1.17,5.84,1.17,3.13,0,5.68-.74,7.64-2.22,1.96-1.48,2.94-3.45,2.94-5.9,0-1.47-.35-2.72-1.05-3.75-.7-1.02-1.78-1.9-3.24-2.63-1.46-.73-3.36-1.35-5.7-1.88-2.35-.52-3.97-1.08-4.86-1.65-.9-.58-1.35-1.43-1.35-2.57,0-1.2,.48-2.17,1.45-2.92,.97-.74,2.3-1.12,4.01-1.12s3.03,.47,4.13,1.4c1.09,.93,1.64,2.04,1.64,3.33h4.72c0-2.51-.97-4.56-2.91-6.17-1.94-1.61-4.47-2.41-7.58-2.41s-5.4,.78-7.3,2.34c-1.9,1.56-2.86,3.46-2.86,5.71,0,1.35,.33,2.52,1,3.5,.67,.98,1.7,1.83,3.1,2.54,1.4,.71,3.28,1.32,5.66,1.83s4.05,1.11,5,1.82c.96,.7,1.43,1.69,1.43,2.96,0,1.2-.54,2.16-1.61,2.88m-26.6,4.41h4.47v-27.47h-4.7v19.98c-1.19,2.68-3.57,4.01-7.16,4.01-3.39,0-5.08-2.08-5.08-6.25v-17.75h-4.7v17.88c.02,3.34,.79,5.85,2.32,7.55,1.53,1.7,3.76,2.55,6.69,2.55,3.54,0,6.22-1.07,8.05-3.22l.1,2.72Zm-41.74-21.33c1.29-1.78,3.08-2.67,5.38-2.67,2.91,0,5.07,1.3,6.47,3.89v12.62c-1.37,2.68-3.55,4.01-6.53,4.01-2.27,0-4.05-.88-5.33-2.64-1.29-1.76-1.93-4.2-1.93-7.31,0-3.49,.64-6.12,1.93-7.9m-6.63,7.72c0,4.2,1,7.6,3.01,10.21,2.01,2.61,4.6,3.91,7.78,3.91,3.35,0,5.97-1.15,7.85-3.45l.23,2.95h4.32v-39h-4.7v14.32c-1.88-2.2-4.43-3.3-7.64-3.3s-5.85,1.28-7.85,3.85c-2,2.56-3,5.95-3,10.17v.36Zm-28.36-13.86v27.47h4.7v-19.58c.64-1.32,1.54-2.39,2.69-3.2,1.15-.81,2.49-1.22,4.01-1.22,1.88,0,3.26,.47,4.15,1.42,.89,.95,1.34,2.41,1.36,4.39v18.18h4.7v-18.15c-.05-6.55-2.98-9.83-8.78-9.83-3.39,0-6.13,1.32-8.23,3.96l-.15-3.45h-4.44Zm-8.91-9.5h-4.88v36.97h4.88v-36.97Z"></path>
        <g>
            <path class="cls-1"
                d="M270.29,78.27c4.01-4.9,6.01-11.17,6.01-18.83v-16.6c0-7.61-2.01-13.85-6.01-18.72-4.01-4.87-9.29-7.31-15.85-7.31h-14.76V85.62h14.76c6.56,0,11.84-2.45,15.85-7.35Z"></path>
            <polygon class="cls-1"
                points="347.92 28.77 336.85 63.82 359.33 63.82 348.33 28.77 347.92 28.77"></polygon>
            <path class="cls-1"
                d="M370.95,100.92l-6.76-21.46h-32.25l-6.7,21.46h-20.84L337.95,1.44h20.43l33.41,99.49h-20.84Z"></path>
            <path class="cls-2"
                d="M401.54,27.74c0,8.11,2.97,14.51,8.92,19.2,5.94,4.69,14.66,8.77,26.14,12.23,6.7,2.05,11.38,4.24,14.04,6.56,2.66,2.32,4,5.4,4,9.22s-1.4,6.72-4.2,8.95c-2.8,2.23-6.87,3.35-12.2,3.35-5.92,0-10.62-1.39-14.08-4.17-3.46-2.78-5.19-7.11-5.19-12.98h-19.34l-.14,.41c-.23,10.57,3.5,18.52,11.17,23.85,7.68,5.33,16.87,7.99,27.57,7.99s19.72-2.46,26.38-7.38c6.65-4.92,9.98-11.64,9.98-20.16s-2.87-14.73-8.61-19.71c-5.74-4.99-14.08-9.03-25.01-12.13-7.15-2.41-12.19-4.7-15.1-6.87-2.92-2.16-4.37-4.93-4.37-8.3,0-3.69,1.34-6.72,4.03-9.09,2.69-2.37,6.49-3.55,11.41-3.55,5.42,0,9.63,1.33,12.64,4,3.01,2.66,4.51,6.48,4.51,11.45h19.34l.14-.41c.23-9.02-3.02-16.31-9.74-21.87C457.11,2.78,448.24,0,437.23,0h-.04c-10.38,0-18.91,2.59-25.6,7.76-6.7,5.17-10.04,11.83-10.04,19.99Z"></path>
            <polygon class="cls-2"
                points="548.78 44.21 508.27 44.21 508.27 1.44 488.31 1.44 488.31 100.92 508.27 100.92 508.27 59.58 548.78 59.58 548.78 100.92 568.74 100.92 568.74 1.44 548.78 1.44 548.78 44.21"></polygon>
            <path class="cls-2"
                d="M337.95,1.44l-33.55,99.49h20.84l6.7-21.46h32.25l6.76,21.46h20.84L358.38,1.44h-20.43Zm-1.09,62.39l11.07-35.05h.41l11,35.05h-22.48Z"></path>
            <path class="cls-2"
                d="M284.5,89.34c7.88-7.72,11.82-17.69,11.82-29.89v-16.47c0-12.16-3.94-22.13-11.82-29.89-7.88-7.77-17.9-11.65-30.07-11.65h-34.71V100.92h34.71c12.16,0,22.18-3.86,30.07-11.58ZM239.67,16.81h14.76c6.56,0,11.84,2.44,15.85,7.31,4.01,4.87,6.01,11.12,6.01,18.72v16.6c0,7.65-2.01,13.93-6.01,18.83-4.01,4.9-9.29,7.35-15.85,7.35h-14.76V16.81Z"></path>
        </g>
    </g>
</svg>