<?xml version="1.0" standalone="yes"?>
<svg xmlns="http://www.w3.org/2000/svg" viewBox="0 0 204 150">
    <path style="fill:#0066ff; stroke:none;" d="M0 0L0 67L62 67L62 0L0 0z" />
    <path style="fill:#0066ff; stroke:none;"
        d="M72 0L72 67L135 67L135 0L72 0M145 0L145 67L204 67L204 0L145 0M0 77L0 115L62 115L62 77L0 77M72 77L72 115L135 115L135 77L72 77M145 77L145 115L204 115L204 77L145 77M0 125L0 150L62 150L62 125L0 125M72 125L72 150L135 150L135 125L72 125M145 125L145 150L204 150L204 125L145 125z" />
</svg>